<svg class="diagram-root" style="background: #f5f6f6" xmlns="http://www.w3.org/2000/svg" xmlns:xlink="http://www.w3.org/1999/xlink"><style>.diagram-root { font-family: "Helvetica Neue", sans-serif; font-size: 12px; } .t { overflow: visible; } .t-bg { y: 40; fill: #fff;   } .th { fill: #005aa0;   } .tht { fill: #fff; font-size: 14px;  } .tf { fill: #323c46; overflow: visible; } .tf.pk { fill: #005aa0; font-weight: bold; } .tf.fk { font-weight: bold; } .ty { fill: #adb1b5; font-weight: normal; text-anchor: end; } .r { fill: transparent; stroke: #c3c3c3; stroke-width: 1; } .l { stroke: 1; } .i { fill: #c2c7ce; stroke: #c2c7ce; } .i.ix { fill: #afb3b6; stroke: #000; } .fa { fill: transparent; overflow: visible; } .fa .bg.hover { fill: #f7f7f7; } .c { cy: 12; r: 4; stroke: #d2d2dc; fill: #d2d2dc; } .hr { fill: transparent; stroke: #323c46; stroke-opacity: 0.035; stroke-width: 13; } .dc { stroke: #fa5a3c; fill: #fa5a3c; } .x { stroke: white; stroke-width: 1; } .hl .th { fill: #1b9bff; } .hl .tht {  } .fhl .bg { fill: #e7f4ff; } .fhls .bg {  } .r.hl { stroke: #1b9bff; } .dim { opacity: 0.25; }</style><g class="drawing-wrapper" transform="translate(-116, 32) scale(1,1)"><g class="rs"><path d="M 288 534 m -1, 0 a 1,1 0 1,0 2,0 a 1,1 0 1,0 -2,0 M 288 534 m -0.5, 0 a 0.5,0.5 0 1,0 1,0 a 0.5,0.5 0 1,0 -1,0  M288 534 L288 534 300 534 M 288 540 m -1, 0 a 1,1 0 1,0 2,0 a 1,1 0 1,0 -2,0 M 288 540 m -0.5, 0 a 0.5,0.5 0 1,0 1,0 a 0.5,0.5 0 1,0 -1,0  M288 540 L288 540 295 534 288 528 M 288 528 m -1, 0 a 1,1 0 1,0 2,0 a 1,1 0 1,0 -2,0 M 288 528 m -0.5, 0 a 0.5,0.5 0 1,0 1,0 a 0.5,0.5 0 1,0 -1,0  M300 534 Q 347.75 534, 395.5 415 T 491 296 M 503 296 m -1, 0 a 1,1 0 1,0 2,0 a 1,1 0 1,0 -2,0 M 503 296 m -0.5, 0 a 0.5,0.5 0 1,0 1,0 a 0.5,0.5 0 1,0 -1,0  M503 296 L503 296 491 296 M497 302 L497 302 497 290" id="h3064920609" class="r"></path><path d="M 288 559 m -1, 0 a 1,1 0 1,0 2,0 a 1,1 0 1,0 -2,0 M 288 559 m -0.5, 0 a 0.5,0.5 0 1,0 1,0 a 0.5,0.5 0 1,0 -1,0  M288 559 L288 559 300 559 M 288 565 m -1, 0 a 1,1 0 1,0 2,0 a 1,1 0 1,0 -2,0 M 288 565 m -0.5, 0 a 0.5,0.5 0 1,0 1,0 a 0.5,0.5 0 1,0 -1,0  M288 565 L288 565 295 559 288 553 M 288 553 m -1, 0 a 1,1 0 1,0 2,0 a 1,1 0 1,0 -2,0 M 288 553 m -0.5, 0 a 0.5,0.5 0 1,0 1,0 a 0.5,0.5 0 1,0 -1,0  M300 559 Q 344 559, 388 558.5 T 476 558 M 488 558 m -1, 0 a 1,1 0 1,0 2,0 a 1,1 0 1,0 -2,0 M 488 558 m -0.5, 0 a 0.5,0.5 0 1,0 1,0 a 0.5,0.5 0 1,0 -1,0  M488 558 L488 558 476 558 M482 564 L482 564 482 552" id="h1695824247" class="r"></path><path d="M 291 309 m -1, 0 a 1,1 0 1,0 2,0 a 1,1 0 1,0 -2,0 M 291 309 m -0.5, 0 a 0.5,0.5 0 1,0 1,0 a 0.5,0.5 0 1,0 -1,0  M291 309 L291 309 303 309 M 291 315 m -1, 0 a 1,1 0 1,0 2,0 a 1,1 0 1,0 -2,0 M 291 315 m -0.5, 0 a 0.5,0.5 0 1,0 1,0 a 0.5,0.5 0 1,0 -1,0  M291 315 L291 315 298 309 291 303 M 291 303 m -1, 0 a 1,1 0 1,0 2,0 a 1,1 0 1,0 -2,0 M 291 303 m -0.5, 0 a 0.5,0.5 0 1,0 1,0 a 0.5,0.5 0 1,0 -1,0  M303 309 Q 350 309, 397 302.5 T 491 296 M 503 296 m -1, 0 a 1,1 0 1,0 2,0 a 1,1 0 1,0 -2,0 M 503 296 m -0.5, 0 a 0.5,0.5 0 1,0 1,0 a 0.5,0.5 0 1,0 -1,0  M503 296 L503 296 491 296 M497 302 L497 302 497 290" id="h1602945840" class="r"></path><path d="M 291 334 m -1, 0 a 1,1 0 1,0 2,0 a 1,1 0 1,0 -2,0 M 291 334 m -0.5, 0 a 0.5,0.5 0 1,0 1,0 a 0.5,0.5 0 1,0 -1,0  M291 334 L291 334 303 334 M 291 340 m -1, 0 a 1,1 0 1,0 2,0 a 1,1 0 1,0 -2,0 M 291 340 m -0.5, 0 a 0.5,0.5 0 1,0 1,0 a 0.5,0.5 0 1,0 -1,0  M291 340 L291 340 298 334 291 328 M 291 328 m -1, 0 a 1,1 0 1,0 2,0 a 1,1 0 1,0 -2,0 M 291 328 m -0.5, 0 a 0.5,0.5 0 1,0 1,0 a 0.5,0.5 0 1,0 -1,0  M303 334 Q 346.25 334, 389.5 446 T 476 558 M 488 558 m -1, 0 a 1,1 0 1,0 2,0 a 1,1 0 1,0 -2,0 M 488 558 m -0.5, 0 a 0.5,0.5 0 1,0 1,0 a 0.5,0.5 0 1,0 -1,0  M488 558 L488 558 476 558 M482 564 L482 564 482 552" id="h4178801921" class="r"></path><path d="M 268 92 m -1, 0 a 1,1 0 1,0 2,0 a 1,1 0 1,0 -2,0 M 268 92 m -0.5, 0 a 0.5,0.5 0 1,0 1,0 a 0.5,0.5 0 1,0 -1,0  M268 92 L268 92 280 92 M 268 98 m -1, 0 a 1,1 0 1,0 2,0 a 1,1 0 1,0 -2,0 M 268 98 m -0.5, 0 a 0.5,0.5 0 1,0 1,0 a 0.5,0.5 0 1,0 -1,0  M268 98 L268 98 275 92 268 86 M 268 86 m -1, 0 a 1,1 0 1,0 2,0 a 1,1 0 1,0 -2,0 M 268 86 m -0.5, 0 a 0.5,0.5 0 1,0 1,0 a 0.5,0.5 0 1,0 -1,0  M280 92 Q 332.75 92, 385.5 194 T 491 296 M 503 296 m -1, 0 a 1,1 0 1,0 2,0 a 1,1 0 1,0 -2,0 M 503 296 m -0.5, 0 a 0.5,0.5 0 1,0 1,0 a 0.5,0.5 0 1,0 -1,0  M503 296 L503 296 491 296 M497 302 L497 302 497 290" id="h4262563634" class="r"></path><path d="M 268 117 m -1, 0 a 1,1 0 1,0 2,0 a 1,1 0 1,0 -2,0 M 268 117 m -0.5, 0 a 0.5,0.5 0 1,0 1,0 a 0.5,0.5 0 1,0 -1,0  M268 117 L268 117 280 117 M 268 123 m -1, 0 a 1,1 0 1,0 2,0 a 1,1 0 1,0 -2,0 M 268 123 m -0.5, 0 a 0.5,0.5 0 1,0 1,0 a 0.5,0.5 0 1,0 -1,0  M268 123 L268 123 275 117 268 111 M 268 111 m -1, 0 a 1,1 0 1,0 2,0 a 1,1 0 1,0 -2,0 M 268 111 m -0.5, 0 a 0.5,0.5 0 1,0 1,0 a 0.5,0.5 0 1,0 -1,0  M280 117 Q 329 117, 378 337.5 T 476 558 M 488 558 m -1, 0 a 1,1 0 1,0 2,0 a 1,1 0 1,0 -2,0 M 488 558 m -0.5, 0 a 0.5,0.5 0 1,0 1,0 a 0.5,0.5 0 1,0 -1,0  M488 558 L488 558 476 558 M482 564 L482 564 482 552" id="h3359801377" class="r"></path><path d="M 268 142 m -1, 0 a 1,1 0 1,0 2,0 a 1,1 0 1,0 -2,0 M 268 142 m -0.5, 0 a 0.5,0.5 0 1,0 1,0 a 0.5,0.5 0 1,0 -1,0  M268 142 L268 142 280 142 M 268 148 m -1, 0 a 1,1 0 1,0 2,0 a 1,1 0 1,0 -2,0 M 268 148 m -0.5, 0 a 0.5,0.5 0 1,0 1,0 a 0.5,0.5 0 1,0 -1,0  M268 148 L268 148 275 142 268 136 M 268 136 m -1, 0 a 1,1 0 1,0 2,0 a 1,1 0 1,0 -2,0 M 268 136 m -0.5, 0 a 0.5,0.5 0 1,0 1,0 a 0.5,0.5 0 1,0 -1,0  M280 142 Q 325 142, 370 131 T 460 120 M 472 120 m -1, 0 a 1,1 0 1,0 2,0 a 1,1 0 1,0 -2,0 M 472 120 m -0.5, 0 a 0.5,0.5 0 1,0 1,0 a 0.5,0.5 0 1,0 -1,0  M472 120 L472 120 460 120 M466 126 L466 126 466 114" id="h4225551576" class="r"></path><path d="M 503 371 m -1, 0 a 1,1 0 1,0 2,0 a 1,1 0 1,0 -2,0 M 503 371 m -0.5, 0 a 0.5,0.5 0 1,0 1,0 a 0.5,0.5 0 1,0 -1,0  M503 371 L503 371 491 371 M 503 377 m -1, 0 a 1,1 0 1,0 2,0 a 1,1 0 1,0 -2,0 M 503 377 m -0.5, 0 a 0.5,0.5 0 1,0 1,0 a 0.5,0.5 0 1,0 -1,0  M503 377 L503 377 496 371 503 365 M 503 365 m -1, 0 a 1,1 0 1,0 2,0 a 1,1 0 1,0 -2,0 M 503 365 m -0.5, 0 a 0.5,0.5 0 1,0 1,0 a 0.5,0.5 0 1,0 -1,0  M491 371 Q 470.5 371, 450 506.5 T 409 642 M 397 642 m -1, 0 a 1,1 0 1,0 2,0 a 1,1 0 1,0 -2,0 M 397 642 m -0.5, 0 a 0.5,0.5 0 1,0 1,0 a 0.5,0.5 0 1,0 -1,0  M397 642 L397 642 409 642 M403 648 L403 648 403 636" id="h1394907106" class="r"></path><path d="M 1007 350 m -1, 0 a 1,1 0 1,0 2,0 a 1,1 0 1,0 -2,0 M 1007 350 m -0.5, 0 a 0.5,0.5 0 1,0 1,0 a 0.5,0.5 0 1,0 -1,0  M1007 350 L1007 350 995 350 M 1007 356 m -1, 0 a 1,1 0 1,0 2,0 a 1,1 0 1,0 -2,0 M 1007 356 m -0.5, 0 a 0.5,0.5 0 1,0 1,0 a 0.5,0.5 0 1,0 -1,0  M1007 356 L1007 356 1000 350 1007 344 M 1007 344 m -1, 0 a 1,1 0 1,0 2,0 a 1,1 0 1,0 -2,0 M 1007 344 m -0.5, 0 a 0.5,0.5 0 1,0 1,0 a 0.5,0.5 0 1,0 -1,0  M995 350 Q 910 350, 825 323 T 655 296 M 643 296 m -1, 0 a 1,1 0 1,0 2,0 a 1,1 0 1,0 -2,0 M 643 296 m -0.5, 0 a 0.5,0.5 0 1,0 1,0 a 0.5,0.5 0 1,0 -1,0  M643 296 L643 296 655 296 M649 302 L649 302 649 290" id="h3935916554" class="r"></path><path d="M 1007 375 m -1, 0 a 1,1 0 1,0 2,0 a 1,1 0 1,0 -2,0 M 1007 375 m -0.5, 0 a 0.5,0.5 0 1,0 1,0 a 0.5,0.5 0 1,0 -1,0  M1007 375 L1007 375 995 375 M 1007 381 m -1, 0 a 1,1 0 1,0 2,0 a 1,1 0 1,0 -2,0 M 1007 381 m -0.5, 0 a 0.5,0.5 0 1,0 1,0 a 0.5,0.5 0 1,0 -1,0  M1007 381 L1007 381 1000 375 1007 369 M 1007 369 m -1, 0 a 1,1 0 1,0 2,0 a 1,1 0 1,0 -2,0 M 1007 369 m -0.5, 0 a 0.5,0.5 0 1,0 1,0 a 0.5,0.5 0 1,0 -1,0  M995 375 Q 914.5 375, 834 466.5 T 673 558 M 661 558 m -1, 0 a 1,1 0 1,0 2,0 a 1,1 0 1,0 -2,0 M 661 558 m -0.5, 0 a 0.5,0.5 0 1,0 1,0 a 0.5,0.5 0 1,0 -1,0  M661 558 L661 558 673 558 M667 564 L667 564 667 552" id="h978327504" class="r"></path><path d="M 1007 400 m -1, 0 a 1,1 0 1,0 2,0 a 1,1 0 1,0 -2,0 M 1007 400 m -0.5, 0 a 0.5,0.5 0 1,0 1,0 a 0.5,0.5 0 1,0 -1,0  M1007 400 L1007 400 995 400 M 1007 406 m -1, 0 a 1,1 0 1,0 2,0 a 1,1 0 1,0 -2,0 M 1007 406 m -0.5, 0 a 0.5,0.5 0 1,0 1,0 a 0.5,0.5 0 1,0 -1,0  M1007 406 L1007 406 1000 400 1007 394 M 1007 394 m -1, 0 a 1,1 0 1,0 2,0 a 1,1 0 1,0 -2,0 M 1007 394 m -0.5, 0 a 0.5,0.5 0 1,0 1,0 a 0.5,0.5 0 1,0 -1,0  M995 400 Q 918.25 400, 841.5 260 T 688 120 M 676 120 m -1, 0 a 1,1 0 1,0 2,0 a 1,1 0 1,0 -2,0 M 676 120 m -0.5, 0 a 0.5,0.5 0 1,0 1,0 a 0.5,0.5 0 1,0 -1,0  M676 120 L676 120 688 120 M682 126 L682 126 682 114" id="h1203123474" class="r"></path><path d="M 875 669 m -1, 0 a 1,1 0 1,0 2,0 a 1,1 0 1,0 -2,0 M 875 669 m -0.5, 0 a 0.5,0.5 0 1,0 1,0 a 0.5,0.5 0 1,0 -1,0  M875 669 L875 669 863 669 M 875 675 m -1, 0 a 1,1 0 1,0 2,0 a 1,1 0 1,0 -2,0 M 875 675 m -0.5, 0 a 0.5,0.5 0 1,0 1,0 a 0.5,0.5 0 1,0 -1,0  M875 675 L875 675 868 669 875 663 M 875 663 m -1, 0 a 1,1 0 1,0 2,0 a 1,1 0 1,0 -2,0 M 875 663 m -0.5, 0 a 0.5,0.5 0 1,0 1,0 a 0.5,0.5 0 1,0 -1,0  M863 669 Q 811 669, 759 482.5 T 655 296 M 643 296 m -1, 0 a 1,1 0 1,0 2,0 a 1,1 0 1,0 -2,0 M 643 296 m -0.5, 0 a 0.5,0.5 0 1,0 1,0 a 0.5,0.5 0 1,0 -1,0  M643 296 L643 296 655 296 M649 302 L649 302 649 290" id="h3501320677" class="r"></path><path d="M 875 694 m -1, 0 a 1,1 0 1,0 2,0 a 1,1 0 1,0 -2,0 M 875 694 m -0.5, 0 a 0.5,0.5 0 1,0 1,0 a 0.5,0.5 0 1,0 -1,0  M875 694 L875 694 863 694 M 875 700 m -1, 0 a 1,1 0 1,0 2,0 a 1,1 0 1,0 -2,0 M 875 700 m -0.5, 0 a 0.5,0.5 0 1,0 1,0 a 0.5,0.5 0 1,0 -1,0  M875 700 L875 700 868 694 875 688 M 875 688 m -1, 0 a 1,1 0 1,0 2,0 a 1,1 0 1,0 -2,0 M 875 688 m -0.5, 0 a 0.5,0.5 0 1,0 1,0 a 0.5,0.5 0 1,0 -1,0  M863 694 Q 815.5 694, 768 626 T 673 558 M 661 558 m -1, 0 a 1,1 0 1,0 2,0 a 1,1 0 1,0 -2,0 M 661 558 m -0.5, 0 a 0.5,0.5 0 1,0 1,0 a 0.5,0.5 0 1,0 -1,0  M661 558 L661 558 673 558 M667 564 L667 564 667 552" id="h1399247067" class="r"></path><path d="M 832 80 m -1, 0 a 1,1 0 1,0 2,0 a 1,1 0 1,0 -2,0 M 832 80 m -0.5, 0 a 0.5,0.5 0 1,0 1,0 a 0.5,0.5 0 1,0 -1,0  M832 80 L832 80 820 80 M 832 86 m -1, 0 a 1,1 0 1,0 2,0 a 1,1 0 1,0 -2,0 M 832 86 m -0.5, 0 a 0.5,0.5 0 1,0 1,0 a 0.5,0.5 0 1,0 -1,0  M832 86 L832 86 825 80 832 74 M 832 74 m -1, 0 a 1,1 0 1,0 2,0 a 1,1 0 1,0 -2,0 M 832 74 m -0.5, 0 a 0.5,0.5 0 1,0 1,0 a 0.5,0.5 0 1,0 -1,0  M820 80 Q 778.75 80, 737.5 188 T 655 296 M 643 296 m -1, 0 a 1,1 0 1,0 2,0 a 1,1 0 1,0 -2,0 M 643 296 m -0.5, 0 a 0.5,0.5 0 1,0 1,0 a 0.5,0.5 0 1,0 -1,0  M643 296 L643 296 655 296 M649 302 L649 302 649 290" id="h424445609" class="r"></path><path d="M 832 105 m -1, 0 a 1,1 0 1,0 2,0 a 1,1 0 1,0 -2,0 M 832 105 m -0.5, 0 a 0.5,0.5 0 1,0 1,0 a 0.5,0.5 0 1,0 -1,0  M832 105 L832 105 820 105 M 832 111 m -1, 0 a 1,1 0 1,0 2,0 a 1,1 0 1,0 -2,0 M 832 111 m -0.5, 0 a 0.5,0.5 0 1,0 1,0 a 0.5,0.5 0 1,0 -1,0  M832 111 L832 111 825 105 832 99 M 832 99 m -1, 0 a 1,1 0 1,0 2,0 a 1,1 0 1,0 -2,0 M 832 99 m -0.5, 0 a 0.5,0.5 0 1,0 1,0 a 0.5,0.5 0 1,0 -1,0  M820 105 Q 787 105, 754 112.5 T 688 120 M 676 120 m -1, 0 a 1,1 0 1,0 2,0 a 1,1 0 1,0 -2,0 M 676 120 m -0.5, 0 a 0.5,0.5 0 1,0 1,0 a 0.5,0.5 0 1,0 -1,0  M676 120 L676 120 688 120 M682 126 L682 126 682 114" id="h269770031" class="r"></path><path d="M 921 192.5 m -1, 0 a 1,1 0 1,0 2,0 a 1,1 0 1,0 -2,0 M 921 192.5 m -0.5, 0 a 0.5,0.5 0 1,0 1,0 a 0.5,0.5 0 1,0 -1,0  M921 192.5 L921 192.5 909 192.5 M 921 198.5 m -1, 0 a 1,1 0 1,0 2,0 a 1,1 0 1,0 -2,0 M 921 198.5 m -0.5, 0 a 0.5,0.5 0 1,0 1,0 a 0.5,0.5 0 1,0 -1,0  M921 198.5 L921 198.5 914 192.5 921 186.5 M 921 186.5 m -1, 0 a 1,1 0 1,0 2,0 a 1,1 0 1,0 -2,0 M 921 186.5 m -0.5, 0 a 0.5,0.5 0 1,0 1,0 a 0.5,0.5 0 1,0 -1,0  M909 192.5 Q 845.5 192.5, 782 244.25 T 655 296 M 643 296 m -1, 0 a 1,1 0 1,0 2,0 a 1,1 0 1,0 -2,0 M 643 296 m -0.5, 0 a 0.5,0.5 0 1,0 1,0 a 0.5,0.5 0 1,0 -1,0  M643 296 L643 296 655 296 M649 302 L649 302 649 290" id="h920213669" class="r"></path><path d="M 921 217.5 m -1, 0 a 1,1 0 1,0 2,0 a 1,1 0 1,0 -2,0 M 921 217.5 m -0.5, 0 a 0.5,0.5 0 1,0 1,0 a 0.5,0.5 0 1,0 -1,0  M921 217.5 L921 217.5 909 217.5 M 921 223.5 m -1, 0 a 1,1 0 1,0 2,0 a 1,1 0 1,0 -2,0 M 921 223.5 m -0.5, 0 a 0.5,0.5 0 1,0 1,0 a 0.5,0.5 0 1,0 -1,0  M921 223.5 L921 223.5 914 217.5 921 211.5 M 921 211.5 m -1, 0 a 1,1 0 1,0 2,0 a 1,1 0 1,0 -2,0 M 921 211.5 m -0.5, 0 a 0.5,0.5 0 1,0 1,0 a 0.5,0.5 0 1,0 -1,0  M909 217.5 Q 853.75 217.5, 798.5 168.75 T 688 120 M 676 120 m -1, 0 a 1,1 0 1,0 2,0 a 1,1 0 1,0 -2,0 M 676 120 m -0.5, 0 a 0.5,0.5 0 1,0 1,0 a 0.5,0.5 0 1,0 -1,0  M676 120 L676 120 688 120 M682 126 L682 126 682 114" id="h2544489379" class="r"></path></g><g class="hrs"></g><g class="ts"><svg width="141" height="200" x="147" y="477" id="h66118930" class="t"><rect height="40" width="141" class="th"></rect><text x="13" y="25" class="tht">LapTimes</text><rect height="160" width="141" class="t-bg" y="40"></rect><text x="13" y="61" class="tf fk">raceId<tspan x="128" class="ty">int</tspan></text><text x="13" y="86" class="tf fk">driverId<tspan x="128" class="ty">int</tspan></text><text x="13" y="111" class="tf">lap<tspan x="128" class="ty">int</tspan></text><text x="13" y="136" class="tf">position<tspan x="128" class="ty">int</tspan></text><text x="13" y="161" class="tf">time<tspan x="128" class="ty">varchar(15)</tspan></text><text x="13" y="186" class="tf">milliseconds<tspan x="128" class="ty">long</tspan></text></svg><svg width="141" height="225" x="150" y="252" id="h1251968052" class="t"><rect height="40" width="141" class="th"></rect><text x="13" y="25" class="tht">PitStops</text><rect height="185" width="141" class="t-bg" y="40"></rect><text x="13" y="61" class="tf fk">raceId<tspan x="128" class="ty">int</tspan></text><text x="13" y="86" class="tf fk">driverId<tspan x="128" class="ty">int</tspan></text><text x="13" y="111" class="tf">stop<tspan x="128" class="ty">int</tspan></text><text x="13" y="136" class="tf">lap<tspan x="128" class="ty">int</tspan></text><text x="13" y="161" class="tf">time<tspan x="128" class="ty">varchar(15)</tspan></text><text x="13" y="186" class="tf">duration<tspan x="128" class="ty">float</tspan></text><text x="13" y="211" class="tf">milliseconds<tspan x="128" class="ty">long</tspan></text></svg><svg width="130" height="275" x="138" y="10" id="h183539186" class="t"><rect height="40" width="130" class="th"></rect><text x="13" y="25" class="tht">Qualifying</text><rect height="235" width="130" class="t-bg" y="40"></rect><text x="13" y="61" class="tf pk">qualifyId<tspan x="117" class="ty">int</tspan></text><path d="M7,14A2,2 0 0,1 5,12A2,2 0 0,1 7,10A2,2 0 0,1 9,12A2,2 0 0,1 7,14M12.65,10C11.83,7.67 9.61,6 7, 6A6, 6 0 0, 0 1, 12A6, 6 0 0, 0 7, 18C9.61, 18 11.83, 16.33 12.65, 14H17V18H21V14H23V10H12.65Z" class="i pk" transform="translate(84, 48) scale(0.65)"></path><text x="13" y="86" class="tf fk">raceId<tspan x="117" class="ty">int</tspan></text><text x="13" y="111" class="tf fk">driverId<tspan x="117" class="ty">int</tspan></text><text x="13" y="136" class="tf fk">constructorId<tspan x="117" class="ty">int</tspan></text><text x="13" y="161" class="tf">number<tspan x="117" class="ty">int</tspan></text><text x="13" y="186" class="tf">position<tspan x="117" class="ty">int</tspan></text><text x="13" y="211" class="tf">q1<tspan x="117" class="ty">varchar(15)</tspan></text><text x="13" y="236" class="tf">q2<tspan x="117" class="ty">varchar(15)</tspan></text><text x="13" y="261" class="tf">q3<tspan x="117" class="ty">varchar(15)</tspan></text></svg><svg width="140" height="250" x="503" y="239" id="h756369998" class="t"><rect height="40" width="140" class="th"></rect><text x="13" y="25" class="tht">Races</text><rect height="210" width="140" class="t-bg" y="40"></rect><text x="13" y="61" class="tf pk">raceId<tspan x="127" class="ty">int</tspan></text><path d="M7,14A2,2 0 0,1 5,12A2,2 0 0,1 7,10A2,2 0 0,1 9,12A2,2 0 0,1 7,14M12.65,10C11.83,7.67 9.61,6 7, 6A6, 6 0 0, 0 1, 12A6, 6 0 0, 0 7, 18C9.61, 18 11.83, 16.33 12.65, 14H17V18H21V14H23V10H12.65Z" class="i pk" transform="translate(94, 48) scale(0.65)"></path><text x="13" y="86" class="tf">year<tspan x="127" class="ty">int</tspan></text><text x="13" y="111" class="tf">round<tspan x="127" class="ty">int</tspan></text><text x="13" y="136" class="tf fk">circuitId<tspan x="127" class="ty">int</tspan></text><text x="13" y="161" class="tf">name<tspan x="127" class="ty">varchar(35)</tspan></text><text x="13" y="186" class="tf">date<tspan x="127" class="ty">varchar(15)</tspan></text><text x="13" y="211" class="tf">time<tspan x="127" class="ty">varchar(15)</tspan></text><text x="13" y="236" class="tf">url<tspan x="127" class="ty">varchar(80)</tspan></text></svg><svg width="166" height="300" x="1007" y="268" id="h1488401382" class="t"><rect height="40" width="166" class="th"></rect><text x="13" y="25" class="tht">Results</text><rect height="260" width="166" class="t-bg" y="40"></rect><text x="13" y="61" class="tf pk">resultId<tspan x="153" class="ty">int</tspan></text><path d="M7,14A2,2 0 0,1 5,12A2,2 0 0,1 7,10A2,2 0 0,1 9,12A2,2 0 0,1 7,14M12.65,10C11.83,7.67 9.61,6 7, 6A6, 6 0 0, 0 1, 12A6, 6 0 0, 0 7, 18C9.61, 18 11.83, 16.33 12.65, 14H17V18H21V14H23V10H12.65Z" class="i pk" transform="translate(120, 48) scale(0.65)"></path><text x="13" y="86" class="tf fk">raceId<tspan x="153" class="ty">int</tspan></text><text x="13" y="111" class="tf fk">driverId<tspan x="153" class="ty">int</tspan></text><text x="13" y="136" class="tf fk">constructorId<tspan x="153" class="ty">int</tspan></text><text x="13" y="161" class="tf">number<tspan x="153" class="ty">int</tspan></text><text x="13" y="186" class="tf">grid<tspan x="153" class="ty">int</tspan></text><text x="13" y="211" class="tf">position<tspan x="153" class="ty">varchar(5)</tspan></text><text x="13" y="236" class="tf">positionText<tspan x="153" class="ty">varchar(5)</tspan></text><text x="13" y="261" class="tf">positionOrder<tspan x="153" class="ty">int</tspan></text><text x="13" y="286" class="tf">points<tspan x="153" class="ty">int</tspan></text></svg><svg width="122" height="100" x="1118" y="54" id="h447324019" class="t"><rect height="40" width="122" class="th"></rect><text x="13" y="25" class="tht">Seasons</text><rect height="60" width="122" class="t-bg" y="40"></rect><text x="13" y="61" class="tf">year<tspan x="109" class="ty">int</tspan></text><text x="13" y="86" class="tf">url<tspan x="109" class="ty">varchar(80)</tspan></text></svg><svg width="142" height="100" x="1168" y="161" id="h2620375483" class="t"><rect height="40" width="142" class="th"></rect><text x="13" y="25" class="tht">Status</text><rect height="60" width="142" class="t-bg" y="40"></rect><text x="13" y="61" class="tf">statusId<tspan x="129" class="ty">int</tspan></text><text x="13" y="86" class="tf">status<tspan x="129" class="ty">varchar(30)</tspan></text></svg><svg width="173" height="275" x="488" y="501" id="h3497719526" class="t"><rect height="40" width="173" class="th"></rect><text x="13" y="25" class="tht">Drivers</text><rect height="235" width="173" class="t-bg" y="40"></rect><text x="13" y="61" class="tf pk">driverId<tspan x="160" class="ty">int</tspan></text><path d="M7,14A2,2 0 0,1 5,12A2,2 0 0,1 7,10A2,2 0 0,1 9,12A2,2 0 0,1 7,14M12.65,10C11.83,7.67 9.61,6 7, 6A6, 6 0 0, 0 1, 12A6, 6 0 0, 0 7, 18C9.61, 18 11.83, 16.33 12.65, 14H17V18H21V14H23V10H12.65Z" class="i pk" transform="translate(127, 48) scale(0.65)"></path><text x="13" y="86" class="tf">driverRef<tspan x="160" class="ty">varchar(25)</tspan></text><path d="M22,18V22H18V19H15V16H12L9.74,13.74C9.19,13.91 8.61,14 8,14A6,6 0 0,1 2,8A6,6 0 0,1 8,2A6,6 0 0,1 14,8C14,8.61 13.91, 9.19 13.74, 9.74L22, 18M7, 5A2, 2 0 0, 0 5, 7A2, 2 0 0, 0 7, 9A2, 2 0 0, 0 9, 7A2, 2 0 0, 0 7, 5Z" class="i uq" transform="translate(82, 75.5) scale(0.5)"></path><text x="13" y="111" class="tf">number<tspan x="160" class="ty">varchar(3)</tspan></text><text x="13" y="136" class="tf">code<tspan x="160" class="ty">varchar(3)</tspan></text><text x="13" y="161" class="tf">forname<tspan x="160" class="ty">varchar(30)</tspan></text><text x="13" y="186" class="tf">surname<tspan x="160" class="ty">varchar(30)</tspan></text><text x="13" y="211" class="tf">dob<tspan x="160" class="ty">varchar(12)</tspan></text><text x="13" y="236" class="tf">nationality<tspan x="160" class="ty">varchar(30)</tspan></text><text x="13" y="261" class="tf">url<tspan x="160" class="ty">varchar(80)</tspan></text></svg><svg width="175" height="225" x="875" y="587" id="h2815802950" class="t"><rect height="40" width="175" class="th"></rect><text x="13" y="25" class="tht">DriverStandings</text><rect height="185" width="175" class="t-bg" y="40"></rect><text x="13" y="61" class="tf pk">driverStandingsId<tspan x="162" class="ty">int</tspan></text><path d="M7,14A2,2 0 0,1 5,12A2,2 0 0,1 7,10A2,2 0 0,1 9,12A2,2 0 0,1 7,14M12.65,10C11.83,7.67 9.61,6 7, 6A6, 6 0 0, 0 1, 12A6, 6 0 0, 0 7, 18C9.61, 18 11.83, 16.33 12.65, 14H17V18H21V14H23V10H12.65Z" class="i pk" transform="translate(129, 48) scale(0.65)"></path><text x="13" y="86" class="tf fk">raceId<tspan x="162" class="ty">int</tspan></text><text x="13" y="111" class="tf fk">driverId<tspan x="162" class="ty">int</tspan></text><text x="13" y="136" class="tf">points<tspan x="162" class="ty">int</tspan></text><text x="13" y="161" class="tf">position<tspan x="162" class="ty">int</tspan></text><text x="13" y="186" class="tf">positionText<tspan x="162" class="ty">varchar(5)</tspan></text><text x="13" y="211" class="tf">wins<tspan x="162" class="ty">int</tspan></text></svg><svg width="204" height="175" x="472" y="63" id="h1856871028" class="t"><rect height="40" width="204" class="th"></rect><text x="13" y="25" class="tht">Constructors</text><rect height="135" width="204" class="t-bg" y="40"></rect><text x="13" y="61" class="tf fk">constructorId<tspan x="191" class="ty">int</tspan></text><text x="13" y="86" class="tf">constructorRef<tspan x="191" class="ty">varchar(50)</tspan></text><path d="M22,18V22H18V19H15V16H12L9.74,13.74C9.19,13.91 8.61,14 8,14A6,6 0 0,1 2,8A6,6 0 0,1 8,2A6,6 0 0,1 14,8C14,8.61 13.91, 9.19 13.74, 9.74L22, 18M7, 5A2, 2 0 0, 0 5, 7A2, 2 0 0, 0 7, 9A2, 2 0 0, 0 9, 7A2, 2 0 0, 0 7, 5Z" class="i uq" transform="translate(113, 75.5) scale(0.5)"></path><text x="13" y="111" class="tf">name<tspan x="191" class="ty">varcahr(50)</tspan></text><text x="13" y="136" class="tf">nationality<tspan x="191" class="ty">varchar(50)</tspan></text><text x="13" y="161" class="tf">url<tspan x="191" class="ty">varchar(80)</tspan></text></svg><svg width="90" height="275" x="307" y="585" id="h2176322154" class="t"><rect height="40" width="90" class="th"></rect><text x="13" y="25" class="tht">Table 11</text><rect height="235" width="90" class="t-bg" y="40"></rect><text x="13" y="61" class="tf pk">...<tspan x="77" class="ty"></tspan></text><path d="M7,14A2,2 0 0,1 5,12A2,2 0 0,1 7,10A2,2 0 0,1 9,12A2,2 0 0,1 7,14M12.65,10C11.83,7.67 9.61,6 7, 6A6, 6 0 0, 0 1, 12A6, 6 0 0, 0 7, 18C9.61, 18 11.83, 16.33 12.65, 14H17V18H21V14H23V10H12.65Z" class="i pk" transform="translate(62, 48) scale(0.65)"></path><text x="13" y="86" class="tf">...<tspan x="77" class="ty"></tspan></text><path d="M22,18V22H18V19H15V16H12L9.74,13.74C9.19,13.91 8.61,14 8,14A6,6 0 0,1 2,8A6,6 0 0,1 8,2A6,6 0 0,1 14,8C14,8.61 13.91, 9.19 13.74, 9.74L22, 18M7, 5A2, 2 0 0, 0 5, 7A2, 2 0 0, 0 7, 9A2, 2 0 0, 0 9, 7A2, 2 0 0, 0 7, 5Z" class="i uq" transform="translate(66, 75.5) scale(0.5)"></path><text x="13" y="111" class="tf">...<tspan x="77" class="ty"></tspan></text><path d="M22,18V22H18V19H15V16H12L9.74,13.74C9.19,13.91 8.61,14 8,14A6,6 0 0,1 2,8A6,6 0 0,1 8,2A6,6 0 0,1 14,8C14,8.61 13.91, 9.19 13.74, 9.74L22, 18M7, 5A2, 2 0 0, 0 5, 7A2, 2 0 0, 0 7, 9A2, 2 0 0, 0 9, 7A2, 2 0 0, 0 7, 5Z" class="i uq" transform="translate(66, 100.5) scale(0.5)"></path><text x="13" y="136" class="tf">...<tspan x="77" class="ty"></tspan></text><text x="13" y="161" class="tf">...<tspan x="77" class="ty"></tspan></text><text x="13" y="186" class="tf">...<tspan x="77" class="ty"></tspan></text><text x="13" y="211" class="tf">...<tspan x="77" class="ty"></tspan></text><text x="13" y="236" class="tf">...<tspan x="77" class="ty"></tspan></text><text x="13" y="261" class="tf">...<tspan x="77" class="ty"></tspan></text></svg><svg width="90" height="175" x="832" y="-2" id="h3696248984" class="t"><rect height="40" width="90" class="th"></rect><text x="13" y="25" class="tht">Table 12</text><rect height="135" width="90" class="t-bg" y="40"></rect><text x="13" y="61" class="tf">...<tspan x="77" class="ty"></tspan></text><text x="13" y="86" class="tf fk">...<tspan x="77" class="ty"></tspan></text><text x="13" y="111" class="tf fk">...<tspan x="77" class="ty"></tspan></text><text x="13" y="136" class="tf">...<tspan x="77" class="ty"></tspan></text><text x="13" y="161" class="tf">...<tspan x="77" class="ty"></tspan></text></svg><svg width="90" height="225" x="921" y="110.5" id="h1219816463" class="t"><rect height="40" width="90" class="th"></rect><text x="13" y="25" class="tht">Table 13</text><rect height="185" width="90" class="t-bg" y="40"></rect><text x="13" y="61" class="tf">...<tspan x="77" class="ty"></tspan></text><text x="13" y="86" class="tf fk">...<tspan x="77" class="ty"></tspan></text><text x="13" y="111" class="tf fk">...<tspan x="77" class="ty"></tspan></text><text x="13" y="136" class="tf">...<tspan x="77" class="ty"></tspan></text><text x="13" y="161" class="tf">...<tspan x="77" class="ty"></tspan></text><text x="13" y="186" class="tf">...<tspan x="77" class="ty"></tspan></text><text x="13" y="211" class="tf">...<tspan x="77" class="ty"></tspan></text></svg></g></g><text class="qdbd-link" x="10" y="20">www.quickdatabasediagrams.com</text></svg>